<svg width="782" height="230" viewBox="0 0 782 230" fill="none" xmlns="http://www.w3.org/2000/svg">
<path d="M203.5 114.75C203.5 163.758 163.758 203.5 114.75 203.5C65.7423 203.5 26 163.758 26 114.75C26 65.7423 65.7423 26 114.75 26C163.758 26 203.5 65.7423 203.5 114.75Z" fill="#08E589"/>
<path d="M190.188 114.75C190.188 156.423 156.423 190.188 114.75 190.188C73.0774 190.188 39.3125 156.423 39.3125 114.75C39.3125 73.0774 73.0774 39.3125 114.75 39.3125C156.423 39.3125 190.188 73.0774 190.188 114.75Z" fill="#031B2C"/>
<path d="M163.7 65.7999C135.739 66.0262 107.867 86.7227 93.8982 100.71C79.8402 100.71 58.7621 107.73 51.7419 121.788H86.8781L79.8402 135.828L93.6719 149.886L107.73 142.866V178.002C121.788 170.964 128.808 149.886 128.808 135.846C142.777 121.859 163.478 93.9825 163.7 66.044L163.944 65.7999H163.7ZM135.828 100.692C131.945 100.692 128.808 97.5547 128.808 93.6719C128.808 89.7891 131.945 86.6517 135.828 86.6517C139.711 86.6517 142.848 89.7891 142.848 93.6719C142.848 97.5547 139.711 100.692 135.828 100.692Z" fill="white"/>
<path d="M89.5095 152.779L88.1738 151.426C88.1738 151.426 83.1461 155.553 74.0448 155.553L73.9561 155.535V155.446C73.9561 146.345 78.0829 141.317 78.0829 141.317L76.7295 139.964C76.7295 139.964 65.6002 144.299 65.5825 163.886L65.547 163.922H65.5825C85.1962 163.909 89.5095 152.779 89.5095 152.779Z" fill="white"/>
<path d="M272.61 101L260.46 83.45H259.74H247.05V101H232.47V38H259.74C265.32 38 270.15 38.93 274.23 40.79C278.37 42.65 281.55 45.29 283.77 48.71C285.99 52.13 287.1 56.18 287.1 60.86C287.1 65.54 285.96 69.59 283.68 73.01C281.46 76.37 278.28 78.95 274.14 80.75L288.27 101H272.61ZM272.34 60.86C272.34 57.32 271.2 54.62 268.92 52.76C266.64 50.84 263.31 49.88 258.93 49.88H247.05V71.84H258.93C263.31 71.84 266.64 70.88 268.92 68.96C271.2 67.04 272.34 64.34 272.34 60.86ZM324.302 101.72C319.202 101.72 314.612 100.67 310.532 98.57C306.512 96.41 303.362 93.44 301.082 89.66C298.802 85.88 297.662 81.59 297.662 76.79C297.662 71.99 298.802 67.7 301.082 63.92C303.362 60.14 306.512 57.2 310.532 55.1C314.612 52.94 319.202 51.86 324.302 51.86C329.402 51.86 333.962 52.94 337.982 55.1C342.002 57.2 345.152 60.14 347.432 63.92C349.712 67.7 350.852 71.99 350.852 76.79C350.852 81.59 349.712 85.88 347.432 89.66C345.152 93.44 342.002 96.41 337.982 98.57C333.962 100.67 329.402 101.72 324.302 101.72ZM324.302 90.2C327.902 90.2 330.842 89 333.122 86.6C335.462 84.14 336.632 80.87 336.632 76.79C336.632 72.71 335.462 69.47 333.122 67.07C330.842 64.61 327.902 63.38 324.302 63.38C320.702 63.38 317.732 64.61 315.392 67.07C313.052 69.47 311.882 72.71 311.882 76.79C311.882 80.87 313.052 84.14 315.392 86.6C317.732 89 320.702 90.2 324.302 90.2ZM387.236 101.72C382.076 101.72 377.426 100.67 373.286 98.57C369.206 96.41 365.996 93.44 363.656 89.66C361.376 85.88 360.236 81.59 360.236 76.79C360.236 71.99 361.376 67.7 363.656 63.92C365.996 60.14 369.206 57.2 373.286 55.1C377.426 52.94 382.076 51.86 387.236 51.86C392.336 51.86 396.776 52.94 400.556 55.1C404.396 57.2 407.186 60.23 408.926 64.19L398.036 70.04C395.516 65.6 391.886 63.38 387.146 63.38C383.486 63.38 380.456 64.58 378.056 66.98C375.656 69.38 374.456 72.65 374.456 76.79C374.456 80.93 375.656 84.2 378.056 86.6C380.456 89 383.486 90.2 387.146 90.2C391.946 90.2 395.576 87.98 398.036 83.54L408.926 89.48C407.186 93.32 404.396 96.32 400.556 98.48C396.776 100.64 392.336 101.72 387.236 101.72ZM441.049 82.01L434.299 88.67V101H420.259V34.22H434.299V72.02L454.819 52.58H471.559L451.399 73.1L473.359 101H456.349L441.049 82.01ZM528.593 76.97C528.593 77.15 528.503 78.41 528.323 80.75H491.693C492.353 83.75 493.913 86.12 496.373 87.86C498.833 89.6 501.893 90.47 505.553 90.47C508.073 90.47 510.293 90.11 512.213 89.39C514.193 88.61 516.023 87.41 517.703 85.79L525.173 93.89C520.613 99.11 513.953 101.72 505.193 101.72C499.733 101.72 494.903 100.67 490.703 98.57C486.503 96.41 483.263 93.44 480.983 89.66C478.703 85.88 477.563 81.59 477.563 76.79C477.563 72.05 478.673 67.79 480.893 64.01C483.173 60.17 486.263 57.2 490.163 55.1C494.123 52.94 498.533 51.86 503.393 51.86C508.133 51.86 512.423 52.88 516.263 54.92C520.103 56.96 523.103 59.9 525.263 63.74C527.483 67.52 528.593 71.93 528.593 76.97ZM503.483 62.48C500.303 62.48 497.633 63.38 495.473 65.18C493.313 66.98 491.993 69.44 491.513 72.56H515.363C514.883 69.5 513.563 67.07 511.403 65.27C509.243 63.41 506.603 62.48 503.483 62.48ZM572.771 98.66C571.391 99.68 569.681 100.46 567.641 101C565.661 101.48 563.561 101.72 561.341 101.72C555.581 101.72 551.111 100.25 547.931 97.31C544.811 94.37 543.251 90.05 543.251 84.35V64.46H535.781V53.66H543.251V41.87H557.291V53.66H569.351V64.46H557.291V84.17C557.291 86.21 557.801 87.8 558.821 88.94C559.901 90.02 561.401 90.56 563.321 90.56C565.541 90.56 567.431 89.96 568.991 88.76L572.771 98.66ZM612.872 51.86C617.372 51.86 621.452 52.91 625.112 55.01C628.832 57.05 631.742 59.96 633.842 63.74C635.942 67.46 636.992 71.81 636.992 76.79C636.992 81.77 635.942 86.15 633.842 89.93C631.742 93.65 628.832 96.56 625.112 98.66C621.452 100.7 617.372 101.72 612.872 101.72C606.692 101.72 601.832 99.77 598.292 95.87V118.46H584.252V52.58H597.662V58.16C601.142 53.96 606.212 51.86 612.872 51.86ZM610.442 90.2C614.042 90.2 616.982 89 619.262 86.6C621.602 84.14 622.772 80.87 622.772 76.79C622.772 72.71 621.602 69.47 619.262 67.07C616.982 64.61 614.042 63.38 610.442 63.38C606.842 63.38 603.872 64.61 601.532 67.07C599.252 69.47 598.112 72.71 598.112 76.79C598.112 80.87 599.252 84.14 601.532 86.6C603.872 89 606.842 90.2 610.442 90.2ZM668.73 51.86C676.23 51.86 681.99 53.66 686.01 57.26C690.03 60.8 692.04 66.17 692.04 73.37V101H678.9V94.97C676.26 99.47 671.34 101.72 664.14 101.72C660.42 101.72 657.18 101.09 654.42 99.83C651.72 98.57 649.65 96.83 648.21 94.61C646.77 92.39 646.05 89.87 646.05 87.05C646.05 82.55 647.73 79.01 651.09 76.43C654.51 73.85 659.76 72.56 666.84 72.56H678C678 69.5 677.07 67.16 675.21 65.54C673.35 63.86 670.56 63.02 666.84 63.02C664.26 63.02 661.71 63.44 659.19 64.28C656.73 65.06 654.63 66.14 652.89 67.52L647.85 57.71C650.49 55.85 653.64 54.41 657.3 53.39C661.02 52.37 664.83 51.86 668.73 51.86ZM667.65 92.27C670.05 92.27 672.18 91.73 674.04 90.65C675.9 89.51 677.22 87.86 678 85.7V80.75H668.37C662.61 80.75 659.73 82.64 659.73 86.42C659.73 88.22 660.42 89.66 661.8 90.74C663.24 91.76 665.19 92.27 667.65 92.27ZM755.527 52.58L733.657 103.97C731.437 109.55 728.677 113.48 725.377 115.76C722.137 118.04 718.207 119.18 713.587 119.18C711.067 119.18 708.577 118.79 706.117 118.01C703.657 117.23 701.647 116.15 700.087 114.77L705.217 104.78C706.297 105.74 707.527 106.49 708.907 107.03C710.347 107.57 711.757 107.84 713.137 107.84C715.057 107.84 716.617 107.36 717.817 106.4C719.017 105.5 720.097 103.97 721.057 101.81L721.237 101.36L700.267 52.58H714.757L728.347 85.43L742.027 52.58H755.527Z" fill="#031B2C"/>
<path d="M243.98 139.992C244.831 140.271 245.505 140.74 246.004 141.4C246.503 142.045 246.752 142.852 246.752 143.82C246.752 145.155 246.239 146.189 245.212 146.922C244.185 147.641 242.689 148 240.724 148H233.068V132.6H240.284C242.103 132.6 243.503 132.959 244.486 133.678C245.469 134.382 245.96 135.357 245.96 136.604C245.96 137.367 245.784 138.041 245.432 138.628C245.08 139.215 244.596 139.669 243.98 139.992ZM235.928 134.844V139.09H239.976C240.973 139.09 241.736 138.914 242.264 138.562C242.807 138.195 243.078 137.667 243.078 136.978C243.078 136.274 242.807 135.746 242.264 135.394C241.736 135.027 240.973 134.844 239.976 134.844H235.928ZM240.548 145.756C242.763 145.756 243.87 145.015 243.87 143.534C243.87 142.053 242.763 141.312 240.548 141.312H235.928V145.756H240.548ZM254.468 136.12C256.199 136.12 257.519 136.538 258.428 137.374C259.352 138.195 259.814 139.442 259.814 141.114V148H257.218V146.57C256.881 147.083 256.397 147.479 255.766 147.758C255.15 148.022 254.402 148.154 253.522 148.154C252.642 148.154 251.872 148.007 251.212 147.714C250.552 147.406 250.039 146.988 249.672 146.46C249.32 145.917 249.144 145.309 249.144 144.634C249.144 143.578 249.533 142.735 250.31 142.104C251.102 141.459 252.342 141.136 254.028 141.136H257.064V140.96C257.064 140.139 256.815 139.508 256.316 139.068C255.832 138.628 255.106 138.408 254.138 138.408C253.478 138.408 252.826 138.511 252.18 138.716C251.55 138.921 251.014 139.207 250.574 139.574L249.496 137.572C250.112 137.103 250.853 136.743 251.718 136.494C252.584 136.245 253.5 136.12 254.468 136.12ZM254.094 146.152C254.784 146.152 255.392 145.998 255.92 145.69C256.463 145.367 256.844 144.913 257.064 144.326V142.962H254.226C252.642 142.962 251.85 143.483 251.85 144.524C251.85 145.023 252.048 145.419 252.444 145.712C252.84 146.005 253.39 146.152 254.094 146.152ZM269.281 148.154C268.064 148.154 266.971 147.897 266.003 147.384C265.035 146.871 264.28 146.159 263.737 145.25C263.194 144.326 262.923 143.285 262.923 142.126C262.923 140.967 263.194 139.933 263.737 139.024C264.28 138.115 265.028 137.403 265.981 136.89C266.949 136.377 268.049 136.12 269.281 136.12C270.44 136.12 271.452 136.355 272.317 136.824C273.197 137.293 273.857 137.968 274.297 138.848L272.185 140.08C271.848 139.537 271.422 139.134 270.909 138.87C270.41 138.591 269.86 138.452 269.259 138.452C268.232 138.452 267.382 138.789 266.707 139.464C266.032 140.124 265.695 141.011 265.695 142.126C265.695 143.241 266.025 144.135 266.685 144.81C267.36 145.47 268.218 145.8 269.259 145.8C269.86 145.8 270.41 145.668 270.909 145.404C271.422 145.125 271.848 144.715 272.185 144.172L274.297 145.404C273.842 146.284 273.175 146.966 272.295 147.45C271.43 147.919 270.425 148.154 269.281 148.154ZM281.803 142.962L279.757 144.898V148H277.007V131.676H279.757V141.532L285.455 136.252H288.755L283.849 141.18L289.217 148H285.873L281.803 142.962ZM301.983 142.192C301.983 142.383 301.968 142.654 301.939 143.006H292.721C292.882 143.871 293.3 144.561 293.975 145.074C294.664 145.573 295.515 145.822 296.527 145.822C297.818 145.822 298.881 145.397 299.717 144.546L301.191 146.24C300.663 146.871 299.996 147.347 299.189 147.67C298.382 147.993 297.473 148.154 296.461 148.154C295.17 148.154 294.034 147.897 293.051 147.384C292.068 146.871 291.306 146.159 290.763 145.25C290.235 144.326 289.971 143.285 289.971 142.126C289.971 140.982 290.228 139.955 290.741 139.046C291.269 138.122 291.995 137.403 292.919 136.89C293.843 136.377 294.884 136.12 296.043 136.12C297.187 136.12 298.206 136.377 299.101 136.89C300.01 137.389 300.714 138.1 301.213 139.024C301.726 139.933 301.983 140.989 301.983 142.192ZM296.043 138.32C295.163 138.32 294.415 138.584 293.799 139.112C293.198 139.625 292.831 140.315 292.699 141.18H299.365C299.248 140.329 298.888 139.64 298.287 139.112C297.686 138.584 296.938 138.32 296.043 138.32ZM311.731 136.12C313.212 136.12 314.4 136.553 315.295 137.418C316.189 138.283 316.637 139.567 316.637 141.268V148H313.887V141.62C313.887 140.593 313.645 139.823 313.161 139.31C312.677 138.782 311.987 138.518 311.093 138.518C310.081 138.518 309.281 138.826 308.695 139.442C308.108 140.043 307.815 140.916 307.815 142.06V148H305.065V136.252H307.683V137.77C308.137 137.227 308.709 136.817 309.399 136.538C310.088 136.259 310.865 136.12 311.731 136.12ZM332.179 131.676V148H329.539V146.482C329.084 147.039 328.519 147.457 327.845 147.736C327.185 148.015 326.451 148.154 325.645 148.154C324.515 148.154 323.496 147.905 322.587 147.406C321.692 146.907 320.988 146.203 320.475 145.294C319.961 144.37 319.705 143.314 319.705 142.126C319.705 140.938 319.961 139.889 320.475 138.98C320.988 138.071 321.692 137.367 322.587 136.868C323.496 136.369 324.515 136.12 325.645 136.12C326.422 136.12 327.133 136.252 327.779 136.516C328.424 136.78 328.974 137.176 329.429 137.704V131.676H332.179ZM325.975 145.8C326.635 145.8 327.229 145.653 327.757 145.36C328.285 145.052 328.703 144.619 329.011 144.062C329.319 143.505 329.473 142.859 329.473 142.126C329.473 141.393 329.319 140.747 329.011 140.19C328.703 139.633 328.285 139.207 327.757 138.914C327.229 138.606 326.635 138.452 325.975 138.452C325.315 138.452 324.721 138.606 324.193 138.914C323.665 139.207 323.247 139.633 322.939 140.19C322.631 140.747 322.477 141.393 322.477 142.126C322.477 142.859 322.631 143.505 322.939 144.062C323.247 144.619 323.665 145.052 324.193 145.36C324.721 145.653 325.315 145.8 325.975 145.8ZM349.248 136.12C350.392 136.12 351.411 136.369 352.306 136.868C353.215 137.367 353.927 138.071 354.44 138.98C354.953 139.889 355.21 140.938 355.21 142.126C355.21 143.314 354.953 144.37 354.44 145.294C353.927 146.203 353.215 146.907 352.306 147.406C351.411 147.905 350.392 148.154 349.248 148.154C347.664 148.154 346.41 147.626 345.486 146.57V152.268H342.736V136.252H345.354V137.792C345.809 137.235 346.366 136.817 347.026 136.538C347.701 136.259 348.441 136.12 349.248 136.12ZM348.94 145.8C349.952 145.8 350.781 145.463 351.426 144.788C352.086 144.113 352.416 143.226 352.416 142.126C352.416 141.026 352.086 140.139 351.426 139.464C350.781 138.789 349.952 138.452 348.94 138.452C348.28 138.452 347.686 138.606 347.158 138.914C346.63 139.207 346.212 139.633 345.904 140.19C345.596 140.747 345.442 141.393 345.442 142.126C345.442 142.859 345.596 143.505 345.904 144.062C346.212 144.619 346.63 145.052 347.158 145.36C347.686 145.653 348.28 145.8 348.94 145.8ZM362.596 136.12C364.326 136.12 365.646 136.538 366.556 137.374C367.48 138.195 367.942 139.442 367.942 141.114V148H365.346V146.57C365.008 147.083 364.524 147.479 363.894 147.758C363.278 148.022 362.53 148.154 361.65 148.154C360.77 148.154 360 148.007 359.34 147.714C358.68 147.406 358.166 146.988 357.8 146.46C357.448 145.917 357.272 145.309 357.272 144.634C357.272 143.578 357.66 142.735 358.438 142.104C359.23 141.459 360.469 141.136 362.156 141.136H365.192V140.96C365.192 140.139 364.942 139.508 364.444 139.068C363.96 138.628 363.234 138.408 362.266 138.408C361.606 138.408 360.953 138.511 360.308 138.716C359.677 138.921 359.142 139.207 358.702 139.574L357.624 137.572C358.24 137.103 358.98 136.743 359.846 136.494C360.711 136.245 361.628 136.12 362.596 136.12ZM362.222 146.152C362.911 146.152 363.52 145.998 364.048 145.69C364.59 145.367 364.972 144.913 365.192 144.326V142.962H362.354C360.77 142.962 359.978 143.483 359.978 144.524C359.978 145.023 360.176 145.419 360.572 145.712C360.968 146.005 361.518 146.152 362.222 146.152ZM374.529 137.968C375.321 136.736 376.714 136.12 378.709 136.12V138.738C378.474 138.694 378.262 138.672 378.071 138.672C377 138.672 376.164 138.987 375.563 139.618C374.962 140.234 374.661 141.129 374.661 142.302V148H371.911V136.252H374.529V137.968ZM385.905 136.12C387.636 136.12 388.956 136.538 389.865 137.374C390.789 138.195 391.251 139.442 391.251 141.114V148H388.655V146.57C388.318 147.083 387.834 147.479 387.203 147.758C386.587 148.022 385.839 148.154 384.959 148.154C384.079 148.154 383.309 148.007 382.649 147.714C381.989 147.406 381.476 146.988 381.109 146.46C380.757 145.917 380.581 145.309 380.581 144.634C380.581 143.578 380.97 142.735 381.747 142.104C382.539 141.459 383.779 141.136 385.465 141.136H388.501V140.96C388.501 140.139 388.252 139.508 387.753 139.068C387.269 138.628 386.543 138.408 385.575 138.408C384.915 138.408 384.263 138.511 383.617 138.716C382.987 138.921 382.451 139.207 382.011 139.574L380.933 137.572C381.549 137.103 382.29 136.743 383.155 136.494C384.021 136.245 384.937 136.12 385.905 136.12ZM385.531 146.152C386.221 146.152 386.829 145.998 387.357 145.69C387.9 145.367 388.281 144.913 388.501 144.326V142.962H385.663C384.079 142.962 383.287 143.483 383.287 144.524C383.287 145.023 383.485 145.419 383.881 145.712C384.277 146.005 384.827 146.152 385.531 146.152ZM408.253 136.12C409.397 136.12 410.416 136.369 411.311 136.868C412.22 137.367 412.931 138.071 413.445 138.98C413.958 139.889 414.215 140.938 414.215 142.126C414.215 143.314 413.958 144.37 413.445 145.294C412.931 146.203 412.22 146.907 411.311 147.406C410.416 147.905 409.397 148.154 408.253 148.154C406.669 148.154 405.415 147.626 404.491 146.57V152.268H401.741V136.252H404.359V137.792C404.813 137.235 405.371 136.817 406.031 136.538C406.705 136.259 407.446 136.12 408.253 136.12ZM407.945 145.8C408.957 145.8 409.785 145.463 410.431 144.788C411.091 144.113 411.421 143.226 411.421 142.126C411.421 141.026 411.091 140.139 410.431 139.464C409.785 138.789 408.957 138.452 407.945 138.452C407.285 138.452 406.691 138.606 406.163 138.914C405.635 139.207 405.217 139.633 404.909 140.19C404.601 140.747 404.447 141.393 404.447 142.126C404.447 142.859 404.601 143.505 404.909 144.062C405.217 144.619 405.635 145.052 406.163 145.36C406.691 145.653 407.285 145.8 407.945 145.8ZM419.881 137.968C420.673 136.736 422.066 136.12 424.061 136.12V138.738C423.826 138.694 423.613 138.672 423.423 138.672C422.352 138.672 421.516 138.987 420.915 139.618C420.313 140.234 420.013 141.129 420.013 142.302V148H417.263V136.252H419.881V137.968ZM432.006 148.154C430.818 148.154 429.748 147.897 428.794 147.384C427.841 146.871 427.093 146.159 426.55 145.25C426.022 144.326 425.758 143.285 425.758 142.126C425.758 140.967 426.022 139.933 426.55 139.024C427.093 138.115 427.841 137.403 428.794 136.89C429.748 136.377 430.818 136.12 432.006 136.12C433.209 136.12 434.287 136.377 435.24 136.89C436.194 137.403 436.934 138.115 437.462 139.024C438.005 139.933 438.276 140.967 438.276 142.126C438.276 143.285 438.005 144.326 437.462 145.25C436.934 146.159 436.194 146.871 435.24 147.384C434.287 147.897 433.209 148.154 432.006 148.154ZM432.006 145.8C433.018 145.8 433.854 145.463 434.514 144.788C435.174 144.113 435.504 143.226 435.504 142.126C435.504 141.026 435.174 140.139 434.514 139.464C433.854 138.789 433.018 138.452 432.006 138.452C430.994 138.452 430.158 138.789 429.498 139.464C428.853 140.139 428.53 141.026 428.53 142.126C428.53 143.226 428.853 144.113 429.498 144.788C430.158 145.463 430.994 145.8 432.006 145.8ZM446.736 148.154C445.519 148.154 444.426 147.897 443.458 147.384C442.49 146.871 441.735 146.159 441.192 145.25C440.649 144.326 440.378 143.285 440.378 142.126C440.378 140.967 440.649 139.933 441.192 139.024C441.735 138.115 442.483 137.403 443.436 136.89C444.404 136.377 445.504 136.12 446.736 136.12C447.895 136.12 448.907 136.355 449.772 136.824C450.652 137.293 451.312 137.968 451.752 138.848L449.64 140.08C449.303 139.537 448.877 139.134 448.364 138.87C447.865 138.591 447.315 138.452 446.714 138.452C445.687 138.452 444.837 138.789 444.162 139.464C443.487 140.124 443.15 141.011 443.15 142.126C443.15 143.241 443.48 144.135 444.14 144.81C444.815 145.47 445.673 145.8 446.714 145.8C447.315 145.8 447.865 145.668 448.364 145.404C448.877 145.125 449.303 144.715 449.64 144.172L451.752 145.404C451.297 146.284 450.63 146.966 449.75 147.45C448.885 147.919 447.88 148.154 446.736 148.154ZM465.441 142.192C465.441 142.383 465.427 142.654 465.397 143.006H456.179C456.341 143.871 456.759 144.561 457.433 145.074C458.123 145.573 458.973 145.822 459.985 145.822C461.276 145.822 462.339 145.397 463.175 144.546L464.649 146.24C464.121 146.871 463.454 147.347 462.647 147.67C461.841 147.993 460.931 148.154 459.919 148.154C458.629 148.154 457.492 147.897 456.509 147.384C455.527 146.871 454.764 146.159 454.221 145.25C453.693 144.326 453.429 143.285 453.429 142.126C453.429 140.982 453.686 139.955 454.199 139.046C454.727 138.122 455.453 137.403 456.377 136.89C457.301 136.377 458.343 136.12 459.501 136.12C460.645 136.12 461.665 136.377 462.559 136.89C463.469 137.389 464.173 138.1 464.671 139.024C465.185 139.933 465.441 140.989 465.441 142.192ZM459.501 138.32C458.621 138.32 457.873 138.584 457.257 139.112C456.656 139.625 456.289 140.315 456.157 141.18H462.823C462.706 140.329 462.347 139.64 461.745 139.112C461.144 138.584 460.396 138.32 459.501 138.32ZM472.153 148.154C471.199 148.154 470.268 148.029 469.359 147.78C468.449 147.531 467.723 147.215 467.181 146.834L468.237 144.744C468.765 145.096 469.395 145.382 470.129 145.602C470.877 145.807 471.61 145.91 472.329 145.91C473.971 145.91 474.793 145.477 474.793 144.612C474.793 144.201 474.58 143.915 474.155 143.754C473.744 143.593 473.077 143.439 472.153 143.292C471.185 143.145 470.393 142.977 469.777 142.786C469.175 142.595 468.647 142.265 468.193 141.796C467.753 141.312 467.533 140.645 467.533 139.794C467.533 138.679 467.995 137.792 468.919 137.132C469.857 136.457 471.119 136.12 472.703 136.12C473.509 136.12 474.316 136.215 475.123 136.406C475.929 136.582 476.589 136.824 477.103 137.132L476.047 139.222C475.049 138.635 473.927 138.342 472.681 138.342C471.874 138.342 471.258 138.467 470.833 138.716C470.422 138.951 470.217 139.266 470.217 139.662C470.217 140.102 470.437 140.417 470.877 140.608C471.331 140.784 472.028 140.953 472.967 141.114C473.905 141.261 474.675 141.429 475.277 141.62C475.878 141.811 476.391 142.133 476.817 142.588C477.257 143.043 477.477 143.688 477.477 144.524C477.477 145.624 477 146.504 476.047 147.164C475.093 147.824 473.795 148.154 472.153 148.154ZM483.915 148.154C482.962 148.154 482.03 148.029 481.121 147.78C480.212 147.531 479.486 147.215 478.943 146.834L479.999 144.744C480.527 145.096 481.158 145.382 481.891 145.602C482.639 145.807 483.372 145.91 484.091 145.91C485.734 145.91 486.555 145.477 486.555 144.612C486.555 144.201 486.342 143.915 485.917 143.754C485.506 143.593 484.839 143.439 483.915 143.292C482.947 143.145 482.155 142.977 481.539 142.786C480.938 142.595 480.41 142.265 479.955 141.796C479.515 141.312 479.295 140.645 479.295 139.794C479.295 138.679 479.757 137.792 480.681 137.132C481.62 136.457 482.881 136.12 484.465 136.12C485.272 136.12 486.078 136.215 486.885 136.406C487.692 136.582 488.352 136.824 488.865 137.132L487.809 139.222C486.812 138.635 485.69 138.342 484.443 138.342C483.636 138.342 483.02 138.467 482.595 138.716C482.184 138.951 481.979 139.266 481.979 139.662C481.979 140.102 482.199 140.417 482.639 140.608C483.094 140.784 483.79 140.953 484.729 141.114C485.668 141.261 486.438 141.429 487.039 141.62C487.64 141.811 488.154 142.133 488.579 142.588C489.019 143.043 489.239 143.688 489.239 144.524C489.239 145.624 488.762 146.504 487.809 147.164C486.856 147.824 485.558 148.154 483.915 148.154ZM496.535 136.12C498.266 136.12 499.586 136.538 500.495 137.374C501.419 138.195 501.881 139.442 501.881 141.114V148H499.285V146.57C498.948 147.083 498.464 147.479 497.833 147.758C497.217 148.022 496.469 148.154 495.589 148.154C494.709 148.154 493.939 148.007 493.279 147.714C492.619 147.406 492.106 146.988 491.739 146.46C491.387 145.917 491.211 145.309 491.211 144.634C491.211 143.578 491.6 142.735 492.377 142.104C493.169 141.459 494.409 141.136 496.095 141.136H499.131V140.96C499.131 140.139 498.882 139.508 498.383 139.068C497.899 138.628 497.173 138.408 496.205 138.408C495.545 138.408 494.893 138.511 494.247 138.716C493.617 138.921 493.081 139.207 492.641 139.574L491.563 137.572C492.179 137.103 492.92 136.743 493.785 136.494C494.651 136.245 495.567 136.12 496.535 136.12ZM496.161 146.152C496.851 146.152 497.459 145.998 497.987 145.69C498.53 145.367 498.911 144.913 499.131 144.326V142.962H496.293C494.709 142.962 493.917 143.483 493.917 144.524C493.917 145.023 494.115 145.419 494.511 145.712C494.907 146.005 495.457 146.152 496.161 146.152ZM520.679 136.12C522.16 136.12 523.333 136.553 524.199 137.418C525.064 138.269 525.497 139.552 525.497 141.268V148H522.747V141.62C522.747 140.593 522.519 139.823 522.065 139.31C521.61 138.782 520.957 138.518 520.107 138.518C519.183 138.518 518.442 138.826 517.885 139.442C517.327 140.043 517.049 140.909 517.049 142.038V148H514.299V141.62C514.299 140.593 514.071 139.823 513.617 139.31C513.162 138.782 512.509 138.518 511.659 138.518C510.72 138.518 509.972 138.819 509.415 139.42C508.872 140.021 508.601 140.894 508.601 142.038V148H505.851V136.252H508.469V137.748C508.909 137.22 509.459 136.817 510.119 136.538C510.779 136.259 511.512 136.12 512.319 136.12C513.199 136.12 513.976 136.289 514.651 136.626C515.34 136.949 515.883 137.433 516.279 138.078C516.763 137.462 517.386 136.985 518.149 136.648C518.911 136.296 519.755 136.12 520.679 136.12ZM540.602 142.192C540.602 142.383 540.588 142.654 540.558 143.006H531.34C531.502 143.871 531.92 144.561 532.594 145.074C533.284 145.573 534.134 145.822 535.146 145.822C536.437 145.822 537.5 145.397 538.336 144.546L539.81 146.24C539.282 146.871 538.615 147.347 537.808 147.67C537.002 147.993 536.092 148.154 535.08 148.154C533.79 148.154 532.653 147.897 531.67 147.384C530.688 146.871 529.925 146.159 529.382 145.25C528.854 144.326 528.59 143.285 528.59 142.126C528.59 140.982 528.847 139.955 529.36 139.046C529.888 138.122 530.614 137.403 531.538 136.89C532.462 136.377 533.504 136.12 534.662 136.12C535.806 136.12 536.826 136.377 537.72 136.89C538.63 137.389 539.334 138.1 539.832 139.024C540.346 139.933 540.602 140.989 540.602 142.192ZM534.662 138.32C533.782 138.32 533.034 138.584 532.418 139.112C531.817 139.625 531.45 140.315 531.318 141.18H537.984C537.867 140.329 537.508 139.64 536.906 139.112C536.305 138.584 535.557 138.32 534.662 138.32ZM550.35 136.12C551.831 136.12 553.019 136.553 553.914 137.418C554.808 138.283 555.256 139.567 555.256 141.268V148H552.506V141.62C552.506 140.593 552.264 139.823 551.78 139.31C551.296 138.782 550.606 138.518 549.712 138.518C548.7 138.518 547.9 138.826 547.314 139.442C546.727 140.043 546.434 140.916 546.434 142.06V148H543.684V136.252H546.302V137.77C546.756 137.227 547.328 136.817 548.018 136.538C548.707 136.259 549.484 136.12 550.35 136.12ZM566.246 147.362C565.924 147.626 565.528 147.824 565.058 147.956C564.604 148.088 564.12 148.154 563.606 148.154C562.316 148.154 561.318 147.817 560.614 147.142C559.91 146.467 559.558 145.485 559.558 144.194V138.54H557.622V136.34H559.558V133.656H562.308V136.34H565.454V138.54H562.308V144.128C562.308 144.7 562.448 145.14 562.726 145.448C563.005 145.741 563.408 145.888 563.936 145.888C564.552 145.888 565.066 145.727 565.476 145.404L566.246 147.362ZM573.842 148.154C572.654 148.154 571.583 147.897 570.63 147.384C569.676 146.871 568.928 146.159 568.386 145.25C567.858 144.326 567.594 143.285 567.594 142.126C567.594 140.967 567.858 139.933 568.386 139.024C568.928 138.115 569.676 137.403 570.63 136.89C571.583 136.377 572.654 136.12 573.842 136.12C575.044 136.12 576.122 136.377 577.076 136.89C578.029 137.403 578.77 138.115 579.298 139.024C579.84 139.933 580.112 140.967 580.112 142.126C580.112 143.285 579.84 144.326 579.298 145.25C578.77 146.159 578.029 146.871 577.076 147.384C576.122 147.897 575.044 148.154 573.842 148.154ZM573.842 145.8C574.854 145.8 575.69 145.463 576.35 144.788C577.01 144.113 577.34 143.226 577.34 142.126C577.34 141.026 577.01 140.139 576.35 139.464C575.69 138.789 574.854 138.452 573.842 138.452C572.83 138.452 571.994 138.789 571.334 139.464C570.688 140.139 570.366 141.026 570.366 142.126C570.366 143.226 570.688 144.113 571.334 144.788C571.994 145.463 572.83 145.8 573.842 145.8ZM601.208 131.676V148H598.568V146.482C598.113 147.039 597.548 147.457 596.874 147.736C596.214 148.015 595.48 148.154 594.674 148.154C593.544 148.154 592.525 147.905 591.616 147.406C590.721 146.907 590.017 146.203 589.504 145.294C588.99 144.37 588.734 143.314 588.734 142.126C588.734 140.938 588.99 139.889 589.504 138.98C590.017 138.071 590.721 137.367 591.616 136.868C592.525 136.369 593.544 136.12 594.674 136.12C595.451 136.12 596.162 136.252 596.808 136.516C597.453 136.78 598.003 137.176 598.458 137.704V131.676H601.208ZM595.004 145.8C595.664 145.8 596.258 145.653 596.786 145.36C597.314 145.052 597.732 144.619 598.04 144.062C598.348 143.505 598.502 142.859 598.502 142.126C598.502 141.393 598.348 140.747 598.04 140.19C597.732 139.633 597.314 139.207 596.786 138.914C596.258 138.606 595.664 138.452 595.004 138.452C594.344 138.452 593.75 138.606 593.222 138.914C592.694 139.207 592.276 139.633 591.968 140.19C591.66 140.747 591.506 141.393 591.506 142.126C591.506 142.859 591.66 143.505 591.968 144.062C592.276 144.619 592.694 145.052 593.222 145.36C593.75 145.653 594.344 145.8 595.004 145.8ZM616.289 142.192C616.289 142.383 616.274 142.654 616.245 143.006H607.027C607.188 143.871 607.606 144.561 608.281 145.074C608.97 145.573 609.821 145.822 610.833 145.822C612.124 145.822 613.187 145.397 614.023 144.546L615.497 146.24C614.969 146.871 614.302 147.347 613.495 147.67C612.688 147.993 611.779 148.154 610.767 148.154C609.476 148.154 608.34 147.897 607.357 147.384C606.374 146.871 605.612 146.159 605.069 145.25C604.541 144.326 604.277 143.285 604.277 142.126C604.277 140.982 604.534 139.955 605.047 139.046C605.575 138.122 606.301 137.403 607.225 136.89C608.149 136.377 609.19 136.12 610.349 136.12C611.493 136.12 612.512 136.377 613.407 136.89C614.316 137.389 615.02 138.1 615.519 139.024C616.032 139.933 616.289 140.989 616.289 142.192ZM610.349 138.32C609.469 138.32 608.721 138.584 608.105 139.112C607.504 139.625 607.137 140.315 607.005 141.18H613.671C613.554 140.329 613.194 139.64 612.593 139.112C611.992 138.584 611.244 138.32 610.349 138.32ZM632.953 147.362C632.63 147.626 632.234 147.824 631.765 147.956C631.31 148.088 630.826 148.154 630.313 148.154C629.022 148.154 628.025 147.817 627.321 147.142C626.617 146.467 626.265 145.485 626.265 144.194V138.54H624.329V136.34H626.265V133.656H629.015V136.34H632.161V138.54H629.015V144.128C629.015 144.7 629.154 145.14 629.433 145.448C629.711 145.741 630.115 145.888 630.643 145.888C631.259 145.888 631.772 145.727 632.183 145.404L632.953 147.362ZM638.273 137.968C639.065 136.736 640.458 136.12 642.453 136.12V138.738C642.218 138.694 642.006 138.672 641.815 138.672C640.744 138.672 639.908 138.987 639.307 139.618C638.706 140.234 638.405 141.129 638.405 142.302V148H635.655V136.252H638.273V137.968ZM649.649 136.12C651.38 136.12 652.7 136.538 653.609 137.374C654.533 138.195 654.995 139.442 654.995 141.114V148H652.399V146.57C652.062 147.083 651.578 147.479 650.947 147.758C650.331 148.022 649.583 148.154 648.703 148.154C647.823 148.154 647.053 148.007 646.393 147.714C645.733 147.406 645.22 146.988 644.853 146.46C644.501 145.917 644.325 145.309 644.325 144.634C644.325 143.578 644.714 142.735 645.491 142.104C646.283 141.459 647.523 141.136 649.209 141.136H652.245V140.96C652.245 140.139 651.996 139.508 651.497 139.068C651.013 138.628 650.287 138.408 649.319 138.408C648.659 138.408 648.007 138.511 647.361 138.716C646.731 138.921 646.195 139.207 645.755 139.574L644.677 137.572C645.293 137.103 646.034 136.743 646.899 136.494C647.765 136.245 648.681 136.12 649.649 136.12ZM649.275 146.152C649.965 146.152 650.573 145.998 651.101 145.69C651.644 145.367 652.025 144.913 652.245 144.326V142.962H649.407C647.823 142.962 647.031 143.483 647.031 144.524C647.031 145.023 647.229 145.419 647.625 145.712C648.021 146.005 648.571 146.152 649.275 146.152ZM665.631 136.12C667.112 136.12 668.3 136.553 669.195 137.418C670.089 138.283 670.537 139.567 670.537 141.268V148H667.787V141.62C667.787 140.593 667.545 139.823 667.061 139.31C666.577 138.782 665.887 138.518 664.993 138.518C663.981 138.518 663.181 138.826 662.595 139.442C662.008 140.043 661.715 140.916 661.715 142.06V148H658.965V136.252H661.583V137.77C662.037 137.227 662.609 136.817 663.299 136.538C663.988 136.259 664.765 136.12 665.631 136.12ZM678.095 148.154C677.142 148.154 676.21 148.029 675.301 147.78C674.392 147.531 673.666 147.215 673.123 146.834L674.179 144.744C674.707 145.096 675.338 145.382 676.071 145.602C676.819 145.807 677.552 145.91 678.271 145.91C679.914 145.91 680.735 145.477 680.735 144.612C680.735 144.201 680.522 143.915 680.097 143.754C679.686 143.593 679.019 143.439 678.095 143.292C677.127 143.145 676.335 142.977 675.719 142.786C675.118 142.595 674.59 142.265 674.135 141.796C673.695 141.312 673.475 140.645 673.475 139.794C673.475 138.679 673.937 137.792 674.861 137.132C675.8 136.457 677.061 136.12 678.645 136.12C679.452 136.12 680.258 136.215 681.065 136.406C681.872 136.582 682.532 136.824 683.045 137.132L681.989 139.222C680.992 138.635 679.87 138.342 678.623 138.342C677.816 138.342 677.2 138.467 676.775 138.716C676.364 138.951 676.159 139.266 676.159 139.662C676.159 140.102 676.379 140.417 676.819 140.608C677.274 140.784 677.97 140.953 678.909 141.114C679.848 141.261 680.618 141.429 681.219 141.62C681.82 141.811 682.334 142.133 682.759 142.588C683.199 143.043 683.419 143.688 683.419 144.524C683.419 145.624 682.942 146.504 681.989 147.164C681.036 147.824 679.738 148.154 678.095 148.154ZM690.715 136.12C692.446 136.12 693.766 136.538 694.675 137.374C695.599 138.195 696.061 139.442 696.061 141.114V148H693.465V146.57C693.128 147.083 692.644 147.479 692.013 147.758C691.397 148.022 690.649 148.154 689.769 148.154C688.889 148.154 688.119 148.007 687.459 147.714C686.799 147.406 686.286 146.988 685.919 146.46C685.567 145.917 685.391 145.309 685.391 144.634C685.391 143.578 685.78 142.735 686.557 142.104C687.349 141.459 688.589 141.136 690.275 141.136H693.311V140.96C693.311 140.139 693.062 139.508 692.563 139.068C692.079 138.628 691.353 138.408 690.385 138.408C689.725 138.408 689.073 138.511 688.427 138.716C687.797 138.921 687.261 139.207 686.821 139.574L685.743 137.572C686.359 137.103 687.1 136.743 687.965 136.494C688.831 136.245 689.747 136.12 690.715 136.12ZM690.341 146.152C691.031 146.152 691.639 145.998 692.167 145.69C692.71 145.367 693.091 144.913 693.311 144.326V142.962H690.473C688.889 142.962 688.097 143.483 688.097 144.524C688.097 145.023 688.295 145.419 688.691 145.712C689.087 146.005 689.637 146.152 690.341 146.152ZM705.528 148.154C704.311 148.154 703.218 147.897 702.25 147.384C701.282 146.871 700.527 146.159 699.984 145.25C699.441 144.326 699.17 143.285 699.17 142.126C699.17 140.967 699.441 139.933 699.984 139.024C700.527 138.115 701.275 137.403 702.228 136.89C703.196 136.377 704.296 136.12 705.528 136.12C706.687 136.12 707.699 136.355 708.564 136.824C709.444 137.293 710.104 137.968 710.544 138.848L708.432 140.08C708.095 139.537 707.669 139.134 707.156 138.87C706.657 138.591 706.107 138.452 705.506 138.452C704.479 138.452 703.629 138.789 702.954 139.464C702.279 140.124 701.942 141.011 701.942 142.126C701.942 143.241 702.272 144.135 702.932 144.81C703.607 145.47 704.465 145.8 705.506 145.8C706.107 145.8 706.657 145.668 707.156 145.404C707.669 145.125 708.095 144.715 708.432 144.172L710.544 145.404C710.089 146.284 709.422 146.966 708.542 147.45C707.677 147.919 706.672 148.154 705.528 148.154ZM704.384 153.016C703.592 153.016 702.917 152.862 702.36 152.554L702.866 151.256C703.321 151.491 703.819 151.608 704.362 151.608C705.139 151.608 705.528 151.344 705.528 150.816C705.528 150.596 705.433 150.42 705.242 150.288C705.051 150.156 704.758 150.09 704.362 150.09H703.68L704.274 147.846H705.77L705.462 149.078C706.093 149.151 706.569 149.349 706.892 149.672C707.215 150.009 707.376 150.427 707.376 150.926C707.376 151.557 707.105 152.063 706.562 152.444C706.019 152.825 705.293 153.016 704.384 153.016ZM718.469 148.154C717.281 148.154 716.211 147.897 715.257 147.384C714.304 146.871 713.556 146.159 713.013 145.25C712.485 144.326 712.221 143.285 712.221 142.126C712.221 140.967 712.485 139.933 713.013 139.024C713.556 138.115 714.304 137.403 715.257 136.89C716.211 136.377 717.281 136.12 718.469 136.12C719.672 136.12 720.75 136.377 721.703 136.89C722.657 137.403 723.397 138.115 723.925 139.024C724.468 139.933 724.739 140.967 724.739 142.126C724.739 143.285 724.468 144.326 723.925 145.25C723.397 146.159 722.657 146.871 721.703 147.384C720.75 147.897 719.672 148.154 718.469 148.154ZM718.469 145.8C719.481 145.8 720.317 145.463 720.977 144.788C721.637 144.113 721.967 143.226 721.967 142.126C721.967 141.026 721.637 140.139 720.977 139.464C720.317 138.789 719.481 138.452 718.469 138.452C717.457 138.452 716.621 138.789 715.961 139.464C715.316 140.139 714.993 141.026 714.993 142.126C714.993 143.226 715.316 144.113 715.961 144.788C716.621 145.463 717.457 145.8 718.469 145.8ZM720.031 134.646C719.665 134.646 719.342 134.573 719.063 134.426C718.799 134.279 718.469 134.059 718.073 133.766C717.839 133.575 717.641 133.436 717.479 133.348C717.333 133.245 717.186 133.194 717.039 133.194C716.731 133.194 716.475 133.311 716.269 133.546C716.079 133.781 715.976 134.103 715.961 134.514H714.487C714.502 133.619 714.722 132.908 715.147 132.38C715.587 131.837 716.159 131.566 716.863 131.566C717.23 131.566 717.545 131.639 717.809 131.786C718.088 131.933 718.425 132.153 718.821 132.446C719.056 132.637 719.247 132.783 719.393 132.886C719.555 132.974 719.709 133.018 719.855 133.018C720.163 133.018 720.413 132.908 720.603 132.688C720.809 132.468 720.919 132.16 720.933 131.764H722.407C722.378 132.629 722.151 133.326 721.725 133.854C721.3 134.382 720.735 134.646 720.031 134.646ZM738.853 142.192C738.853 142.383 738.838 142.654 738.809 143.006H729.591C729.752 143.871 730.17 144.561 730.845 145.074C731.534 145.573 732.385 145.822 733.397 145.822C734.688 145.822 735.751 145.397 736.587 144.546L738.061 146.24C737.533 146.871 736.866 147.347 736.059 147.67C735.252 147.993 734.343 148.154 733.331 148.154C732.04 148.154 730.904 147.897 729.921 147.384C728.938 146.871 728.176 146.159 727.633 145.25C727.105 144.326 726.841 143.285 726.841 142.126C726.841 140.982 727.098 139.955 727.611 139.046C728.139 138.122 728.865 137.403 729.789 136.89C730.713 136.377 731.754 136.12 732.913 136.12C734.057 136.12 735.076 136.377 735.971 136.89C736.88 137.389 737.584 138.1 738.083 139.024C738.596 139.933 738.853 140.989 738.853 142.192ZM732.913 138.32C732.033 138.32 731.285 138.584 730.669 139.112C730.068 139.625 729.701 140.315 729.569 141.18H736.235C736.118 140.329 735.758 139.64 735.157 139.112C734.556 138.584 733.808 138.32 732.913 138.32ZM745.565 148.154C744.611 148.154 743.68 148.029 742.771 147.78C741.861 147.531 741.135 147.215 740.593 146.834L741.649 144.744C742.177 145.096 742.807 145.382 743.541 145.602C744.289 145.807 745.022 145.91 745.741 145.91C747.383 145.91 748.205 145.477 748.205 144.612C748.205 144.201 747.992 143.915 747.567 143.754C747.156 143.593 746.489 143.439 745.565 143.292C744.597 143.145 743.805 142.977 743.189 142.786C742.587 142.595 742.059 142.265 741.605 141.796C741.165 141.312 740.945 140.645 740.945 139.794C740.945 138.679 741.407 137.792 742.331 137.132C743.269 136.457 744.531 136.12 746.115 136.12C746.921 136.12 747.728 136.215 748.535 136.406C749.341 136.582 750.001 136.824 750.515 137.132L749.459 139.222C748.461 138.635 747.339 138.342 746.093 138.342C745.286 138.342 744.67 138.467 744.245 138.716C743.834 138.951 743.629 139.266 743.629 139.662C743.629 140.102 743.849 140.417 744.289 140.608C744.743 140.784 745.44 140.953 746.379 141.114C747.317 141.261 748.087 141.429 748.689 141.62C749.29 141.811 749.803 142.133 750.229 142.588C750.669 143.043 750.889 143.688 750.889 144.524C750.889 145.624 750.412 146.504 749.459 147.164C748.505 147.824 747.207 148.154 745.565 148.154ZM237.578 158.744C236.419 158.744 235.84 159.375 235.84 160.636V161.34H239.074V163.54H235.928V173H233.178V163.54H231.242V161.34H233.178V160.592C233.178 159.331 233.545 158.341 234.278 157.622C235.011 156.889 236.045 156.522 237.38 156.522C238.436 156.522 239.265 156.735 239.866 157.16L239.096 159.228C238.627 158.905 238.121 158.744 237.578 158.744ZM242.682 161.252H245.432V173H242.682V161.252ZM244.068 159.316C243.569 159.316 243.151 159.162 242.814 158.854C242.477 158.531 242.308 158.135 242.308 157.666C242.308 157.197 242.477 156.808 242.814 156.5C243.151 156.177 243.569 156.016 244.068 156.016C244.567 156.016 244.985 156.17 245.322 156.478C245.659 156.771 245.828 157.145 245.828 157.6C245.828 158.084 245.659 158.495 245.322 158.832C244.999 159.155 244.581 159.316 244.068 159.316ZM256.152 161.12C257.634 161.12 258.822 161.553 259.716 162.418C260.611 163.283 261.058 164.567 261.058 166.268V173H258.308V166.62C258.308 165.593 258.066 164.823 257.582 164.31C257.098 163.782 256.409 163.518 255.514 163.518C254.502 163.518 253.703 163.826 253.116 164.442C252.53 165.043 252.236 165.916 252.236 167.06V173H249.486V161.252H252.104V162.77C252.559 162.227 253.131 161.817 253.82 161.538C254.51 161.259 255.287 161.12 256.152 161.12ZM269.475 161.12C271.205 161.12 272.525 161.538 273.435 162.374C274.359 163.195 274.821 164.442 274.821 166.114V173H272.225V171.57C271.887 172.083 271.403 172.479 270.773 172.758C270.157 173.022 269.409 173.154 268.529 173.154C267.649 173.154 266.879 173.007 266.219 172.714C265.559 172.406 265.045 171.988 264.679 171.46C264.327 170.917 264.151 170.309 264.151 169.634C264.151 168.578 264.539 167.735 265.317 167.104C266.109 166.459 267.348 166.136 269.035 166.136H272.071V165.96C272.071 165.139 271.821 164.508 271.323 164.068C270.839 163.628 270.113 163.408 269.145 163.408C268.485 163.408 267.832 163.511 267.187 163.716C266.556 163.921 266.021 164.207 265.581 164.574L264.503 162.572C265.119 162.103 265.859 161.743 266.725 161.494C267.59 161.245 268.507 161.12 269.475 161.12ZM269.101 171.152C269.79 171.152 270.399 170.998 270.927 170.69C271.469 170.367 271.851 169.913 272.071 169.326V167.962H269.233C267.649 167.962 266.857 168.483 266.857 169.524C266.857 170.023 267.055 170.419 267.451 170.712C267.847 171.005 268.397 171.152 269.101 171.152ZM285.456 161.12C286.937 161.12 288.125 161.553 289.02 162.418C289.915 163.283 290.362 164.567 290.362 166.268V173H287.612V166.62C287.612 165.593 287.37 164.823 286.886 164.31C286.402 163.782 285.713 163.518 284.818 163.518C283.806 163.518 283.007 163.826 282.42 164.442C281.833 165.043 281.54 165.916 281.54 167.06V173H278.79V161.252H281.408V162.77C281.863 162.227 282.435 161.817 283.124 161.538C283.813 161.259 284.591 161.12 285.456 161.12ZM299.788 173.154C298.571 173.154 297.478 172.897 296.51 172.384C295.542 171.871 294.787 171.159 294.244 170.25C293.701 169.326 293.43 168.285 293.43 167.126C293.43 165.967 293.701 164.933 294.244 164.024C294.787 163.115 295.535 162.403 296.488 161.89C297.456 161.377 298.556 161.12 299.788 161.12C300.947 161.12 301.959 161.355 302.824 161.824C303.704 162.293 304.364 162.968 304.804 163.848L302.692 165.08C302.355 164.537 301.929 164.134 301.416 163.87C300.917 163.591 300.367 163.452 299.766 163.452C298.739 163.452 297.889 163.789 297.214 164.464C296.539 165.124 296.202 166.011 296.202 167.126C296.202 168.241 296.532 169.135 297.192 169.81C297.867 170.47 298.725 170.8 299.766 170.8C300.367 170.8 300.917 170.668 301.416 170.404C301.929 170.125 302.355 169.715 302.692 169.172L304.804 170.404C304.349 171.284 303.682 171.966 302.802 172.45C301.937 172.919 300.932 173.154 299.788 173.154ZM318.493 167.192C318.493 167.383 318.479 167.654 318.449 168.006H309.231C309.393 168.871 309.811 169.561 310.485 170.074C311.175 170.573 312.025 170.822 313.037 170.822C314.328 170.822 315.391 170.397 316.227 169.546L317.701 171.24C317.173 171.871 316.506 172.347 315.699 172.67C314.893 172.993 313.983 173.154 312.971 173.154C311.681 173.154 310.544 172.897 309.561 172.384C308.579 171.871 307.816 171.159 307.273 170.25C306.745 169.326 306.481 168.285 306.481 167.126C306.481 165.982 306.738 164.955 307.251 164.046C307.779 163.122 308.505 162.403 309.429 161.89C310.353 161.377 311.395 161.12 312.553 161.12C313.697 161.12 314.717 161.377 315.611 161.89C316.521 162.389 317.225 163.1 317.723 164.024C318.237 164.933 318.493 165.989 318.493 167.192ZM312.553 163.32C311.673 163.32 310.925 163.584 310.309 164.112C309.708 164.625 309.341 165.315 309.209 166.18H315.875C315.758 165.329 315.399 164.64 314.797 164.112C314.196 163.584 313.448 163.32 312.553 163.32ZM321.575 161.252H324.325V173H321.575V161.252ZM322.961 159.316C322.462 159.316 322.044 159.162 321.707 158.854C321.37 158.531 321.201 158.135 321.201 157.666C321.201 157.197 321.37 156.808 321.707 156.5C322.044 156.177 322.462 156.016 322.961 156.016C323.46 156.016 323.878 156.17 324.215 156.478C324.552 156.771 324.721 157.145 324.721 157.6C324.721 158.084 324.552 158.495 324.215 158.832C323.892 159.155 323.474 159.316 322.961 159.316ZM330.992 162.968C331.784 161.736 333.178 161.12 335.172 161.12V163.738C334.938 163.694 334.725 163.672 334.534 163.672C333.464 163.672 332.628 163.987 332.026 164.618C331.425 165.234 331.124 166.129 331.124 167.302V173H328.374V161.252H330.992V162.968ZM342.369 161.12C344.099 161.12 345.419 161.538 346.329 162.374C347.253 163.195 347.715 164.442 347.715 166.114V173H345.119V171.57C344.781 172.083 344.297 172.479 343.667 172.758C343.051 173.022 342.303 173.154 341.423 173.154C340.543 173.154 339.773 173.007 339.113 172.714C338.453 172.406 337.939 171.988 337.573 171.46C337.221 170.917 337.045 170.309 337.045 169.634C337.045 168.578 337.433 167.735 338.211 167.104C339.003 166.459 340.242 166.136 341.929 166.136H344.965V165.96C344.965 165.139 344.715 164.508 344.217 164.068C343.733 163.628 343.007 163.408 342.039 163.408C341.379 163.408 340.726 163.511 340.081 163.716C339.45 163.921 338.915 164.207 338.475 164.574L337.397 162.572C338.013 162.103 338.753 161.743 339.619 161.494C340.484 161.245 341.401 161.12 342.369 161.12ZM341.995 171.152C342.684 171.152 343.293 170.998 343.821 170.69C344.363 170.367 344.745 169.913 344.965 169.326V167.962H342.127C340.543 167.962 339.751 168.483 339.751 169.524C339.751 170.023 339.949 170.419 340.345 170.712C340.741 171.005 341.291 171.152 341.995 171.152ZM355.314 173.154C354.361 173.154 353.429 173.029 352.52 172.78C351.611 172.531 350.885 172.215 350.342 171.834L351.398 169.744C351.926 170.096 352.557 170.382 353.29 170.602C354.038 170.807 354.771 170.91 355.49 170.91C357.133 170.91 357.954 170.477 357.954 169.612C357.954 169.201 357.741 168.915 357.316 168.754C356.905 168.593 356.238 168.439 355.314 168.292C354.346 168.145 353.554 167.977 352.938 167.786C352.337 167.595 351.809 167.265 351.354 166.796C350.914 166.312 350.694 165.645 350.694 164.794C350.694 163.679 351.156 162.792 352.08 162.132C353.019 161.457 354.28 161.12 355.864 161.12C356.671 161.12 357.477 161.215 358.284 161.406C359.091 161.582 359.751 161.824 360.264 162.132L359.208 164.222C358.211 163.635 357.089 163.342 355.842 163.342C355.035 163.342 354.419 163.467 353.994 163.716C353.583 163.951 353.378 164.266 353.378 164.662C353.378 165.102 353.598 165.417 354.038 165.608C354.493 165.784 355.189 165.953 356.128 166.114C357.067 166.261 357.837 166.429 358.438 166.62C359.039 166.811 359.553 167.133 359.978 167.588C360.418 168.043 360.638 168.688 360.638 169.524C360.638 170.624 360.161 171.504 359.208 172.164C358.255 172.824 356.957 173.154 355.314 173.154ZM380.966 161.252L375.928 173H373.09L368.052 161.252H370.912L374.564 169.964L378.326 161.252H380.966ZM383.125 161.252H385.875V173H383.125V161.252ZM384.511 159.316C384.012 159.316 383.594 159.162 383.257 158.854C382.92 158.531 382.751 158.135 382.751 157.666C382.751 157.197 382.92 156.808 383.257 156.5C383.594 156.177 384.012 156.016 384.511 156.016C385.01 156.016 385.428 156.17 385.765 156.478C386.102 156.771 386.271 157.145 386.271 157.6C386.271 158.084 386.102 158.495 385.765 158.832C385.442 159.155 385.024 159.316 384.511 159.316ZM394.412 161.12C396.143 161.12 397.463 161.538 398.372 162.374C399.296 163.195 399.758 164.442 399.758 166.114V173H397.162V171.57C396.825 172.083 396.341 172.479 395.71 172.758C395.094 173.022 394.346 173.154 393.466 173.154C392.586 173.154 391.816 173.007 391.156 172.714C390.496 172.406 389.983 171.988 389.616 171.46C389.264 170.917 389.088 170.309 389.088 169.634C389.088 168.578 389.477 167.735 390.254 167.104C391.046 166.459 392.286 166.136 393.972 166.136H397.008V165.96C397.008 165.139 396.759 164.508 396.26 164.068C395.776 163.628 395.05 163.408 394.082 163.408C393.422 163.408 392.77 163.511 392.124 163.716C391.494 163.921 390.958 164.207 390.518 164.574L389.44 162.572C390.056 162.103 390.797 161.743 391.662 161.494C392.528 161.245 393.444 161.12 394.412 161.12ZM394.038 171.152C394.728 171.152 395.336 170.998 395.864 170.69C396.407 170.367 396.788 169.913 397.008 169.326V167.962H394.17C392.586 167.962 391.794 168.483 391.794 169.524C391.794 170.023 391.992 170.419 392.388 170.712C392.784 171.005 393.334 171.152 394.038 171.152ZM420.588 173L417.442 168.49C417.31 168.505 417.112 168.512 416.848 168.512H413.372V173H410.512V157.6H416.848C418.182 157.6 419.341 157.82 420.324 158.26C421.321 158.7 422.084 159.331 422.612 160.152C423.14 160.973 423.404 161.949 423.404 163.078C423.404 164.237 423.118 165.234 422.546 166.07C421.988 166.906 421.182 167.529 420.126 167.94L423.668 173H420.588ZM420.522 163.078C420.522 162.095 420.199 161.34 419.554 160.812C418.908 160.284 417.962 160.02 416.716 160.02H413.372V166.158H416.716C417.962 166.158 418.908 165.894 419.554 165.366C420.199 164.823 420.522 164.061 420.522 163.078ZM438.594 170.602V173H427.044V157.6H438.286V159.998H429.904V164.002H437.34V166.356H429.904V170.602H438.594ZM446.996 173.22C445.808 173.22 444.656 173.051 443.542 172.714C442.442 172.377 441.569 171.929 440.924 171.372L441.914 169.15C442.544 169.649 443.314 170.059 444.224 170.382C445.148 170.69 446.072 170.844 446.996 170.844C448.14 170.844 448.99 170.661 449.548 170.294C450.12 169.927 450.406 169.443 450.406 168.842C450.406 168.402 450.244 168.043 449.922 167.764C449.614 167.471 449.218 167.243 448.734 167.082C448.25 166.921 447.59 166.737 446.754 166.532C445.58 166.253 444.627 165.975 443.894 165.696C443.175 165.417 442.552 164.985 442.024 164.398C441.51 163.797 441.254 162.99 441.254 161.978C441.254 161.127 441.481 160.357 441.936 159.668C442.405 158.964 443.102 158.407 444.026 157.996C444.964 157.585 446.108 157.38 447.458 157.38C448.396 157.38 449.32 157.497 450.23 157.732C451.139 157.967 451.924 158.304 452.584 158.744L451.682 160.966C451.007 160.57 450.303 160.269 449.57 160.064C448.836 159.859 448.125 159.756 447.436 159.756C446.306 159.756 445.463 159.947 444.906 160.328C444.363 160.709 444.092 161.215 444.092 161.846C444.092 162.286 444.246 162.645 444.554 162.924C444.876 163.203 445.28 163.423 445.764 163.584C446.248 163.745 446.908 163.929 447.744 164.134C448.888 164.398 449.826 164.677 450.56 164.97C451.293 165.249 451.916 165.681 452.43 166.268C452.958 166.855 453.222 167.647 453.222 168.644C453.222 169.495 452.987 170.265 452.518 170.954C452.063 171.643 451.366 172.193 450.428 172.604C449.489 173.015 448.345 173.22 446.996 173.22ZM459.407 160.02H454.303V157.6H467.371V160.02H462.267V173H459.407V160.02ZM486.465 169.436H478.765L477.247 173H474.299L481.229 157.6H484.045L490.997 173H488.005L486.465 169.436ZM485.519 167.192L482.615 160.46L479.733 167.192H485.519ZM499.732 157.6C501.067 157.6 502.225 157.82 503.208 158.26C504.205 158.7 504.968 159.331 505.496 160.152C506.024 160.973 506.288 161.949 506.288 163.078C506.288 164.193 506.024 165.168 505.496 166.004C504.968 166.825 504.205 167.456 503.208 167.896C502.225 168.336 501.067 168.556 499.732 168.556H496.256V173H493.396V157.6H499.732ZM499.6 166.136C500.847 166.136 501.793 165.872 502.438 165.344C503.083 164.816 503.406 164.061 503.406 163.078C503.406 162.095 503.083 161.34 502.438 160.812C501.793 160.284 500.847 160.02 499.6 160.02H496.256V166.136H499.6ZM509.584 157.6H512.444V173H509.584V157.6Z" fill="#031B2C"/>
</svg>
