<svg id="SvgjsSvg1001" width="288" height="288" xmlns="http://www.w3.org/2000/svg" version="1.1" xmlns:xlink="http://www.w3.org/1999/xlink" xmlns:svgjs="http://svgjs.com/svgjs"><defs id="SvgjsDefs1002"></defs><g id="SvgjsG1008" transform="matrix(0.916700005531311,0,0,0.916700005531311,11.995199203491211,11.995199203491211)"><svg xmlns="http://www.w3.org/2000/svg" viewBox="0 0 48 48" width="288" height="288"><path fill="#08e589" d="M44 24c0 11.044-8.956 20-20 20S4 35.044 4 24 12.956 4 24 4s20 8.956 20 20z" class="color90A4AE svgShape"></path><path fill="#031b2c" d="M41 24c0 9.391-7.609 17-17 17S7 33.391 7 24 14.609 7 24 7s17 7.609 17 17z" class="colorCFD8DC svgShape"></path><path fill="#ffffff" d="M35.031 12.969c-6.301.051-12.582 4.715-15.73 7.867-3.168 0-7.918 1.582-9.5 4.75h7.918l-1.586 3.164 3.117 3.168 3.168-1.582v7.918c3.168-1.586 4.75-6.336 4.75-9.5 3.148-3.152 7.813-9.434 7.863-15.73l.055-.055h-.055zm-6.281 7.863c-.875 0-1.582-.707-1.582-1.582s.707-1.582 1.582-1.582 1.582.707 1.582 1.582-.707 1.582-1.582 1.582z" class="color37474F svgShape"></path><path fill="#ffffff" d="M18.312 32.57l-.301-.305s-1.133.93-3.184.93l-.02-.004v-.02c0-2.051.93-3.184.93-3.184l-.305-.305s-2.508.977-2.512 5.391l-.008.008h.008c4.42-.003 5.392-2.511 5.392-2.511z" class="color37474F svgShape"></path></svg></g></svg>